<svg id="Layer_2" data-name="Layer 2" xmlns="http://www.w3.org/2000/svg" viewBox="0 0 612 276"><defs><style>.cls-1{fill:#cbbcdc;}.cls-2{fill:#b5daba;}.cls-3{font-size:28.87px;fill:#898872;font-family:ArialMT, Arial;}</style></defs><title>Artboard 1</title><rect class="cls-1" x="2.86" y="59.75" width="19.98" height="158.49"/><rect class="cls-1" x="99.08" y="78.82" width="19.98" height="139.42"/><rect class="cls-2" x="122.98" y="59.75" width="19.98" height="158.49"/><rect class="cls-1" x="192.16" y="70.25" width="19.98" height="147.99"/><rect class="cls-2" x="216.06" y="37.1" width="19.98" height="181.13"/><rect class="cls-2" x="27.38" y="48.6" width="19.98" height="169.64"/><rect class="cls-1" x="282.74" y="66.51" width="19.98" height="151.73"/><rect class="cls-2" x="306.64" y="52.55" width="19.98" height="165.69"/><rect class="cls-1" x="379.05" y="59.75" width="19.98" height="158.49"/><rect class="cls-2" x="402.95" y="48.6" width="19.98" height="169.64"/><rect class="cls-1" x="471.56" y="52.55" width="19.98" height="165.69"/><rect class="cls-2" x="495.46" y="31.04" width="19.98" height="187.2"/><rect class="cls-1" x="562.01" y="37.1" width="19.98" height="181.13"/><rect class="cls-2" x="585.91" y="6.53" width="19.98" height="211.71"/><text class="cls-3" transform="translate(2.37 259.46)">Jan</text><text class="cls-3" transform="translate(99.08 259.46)">Feb</text><text class="cls-3" transform="translate(192.16 259.46)">Mar</text><text class="cls-3" transform="translate(287.13 259.46)">Apr</text><text class="cls-3" transform="translate(380.04 259.46)">May</text><text class="cls-3" transform="translate(469.56 259.46)">Jun</text><text class="cls-3" transform="translate(560.61 259.46)">Jul</text></svg>